<?xml version="1.0" encoding="utf-8"?><svg viewBox="0 0 20 20" xmlns="http://www.w3.org/2000/svg" xmlns:xlink="http://www.w3.org/1999/xlink"><style>:root>svg{display:none}:root>svg:target{display:block}</style><svg fill="none" viewBox="0 0 20 20" id="close" xmlns="http://www.w3.org/2000/svg"><circle cx="10" cy="10" r="10" fill="#999"/><path fill="#fff" d="m6.207 5.5 8.485 8.485-.707.707L5.5 6.207z"/><path fill="#fff" d="M5.59 13.985 14.077 5.5l.707.707-8.485 8.486z"/></svg><svg viewBox="0 0 14 14" id="mdi_calendar_today" xmlns="http://www.w3.org/2000/svg"><g clip-path="url(#ba)"><path d="M11.667 1.75h-.584V.583H9.917V1.75H4.083V.583H2.917V1.75h-.584a1.17 1.17 0 0 0-1.166 1.167v9.333a1.17 1.17 0 0 0 1.166 1.167h9.334a1.17 1.17 0 0 0 1.166-1.167V2.917a1.17 1.17 0 0 0-1.166-1.167Zm0 10.5H2.333V4.667h9.334v7.583Z"/></g><defs><clipPath id="ba"><path fill="#fff" d="M0 0h14v14H0z"/></clipPath></defs></svg><svg fill="none" viewBox="0 0 18 18" id="phone" xmlns="http://www.w3.org/2000/svg"><path d="M16.343 12.098a10.49 10.49 0 0 1-3.236-.513.896.896 0 0 0-.926.22l-1.44 1.806c-2.593-1.238-5.023-3.575-6.315-6.261l1.787-1.522a.935.935 0 0 0 .22-.935 10.223 10.223 0 0 1-.513-3.236.916.916 0 0 0-.907-.907H1.84C1.346.75.75.97.75 1.657c0 8.516 7.086 15.593 15.593 15.593.65 0 .907-.578.907-1.082v-3.162a.916.916 0 0 0-.907-.908Z" fill="#FF6E30"/></svg><svg fill="none" viewBox="0 0 12 12" id="point" xmlns="http://www.w3.org/2000/svg"><circle cx="6" cy="6" r="6" fill="#FF6E30"/></svg></svg>