<?xml version="1.0" encoding="utf-8"?><svg viewBox="0 0 160 160" xmlns="http://www.w3.org/2000/svg" xmlns:xlink="http://www.w3.org/1999/xlink"><style>:root>svg{display:none}:root>svg:target{display:block}</style><svg viewBox="0 0 46 60" fill="none" id="12+" xmlns="http://www.w3.org/2000/svg"><path fill="#E6E8EC" d="M0 0h46v60H0z"/><rect x="8" y="15" width="30" height="30" rx="15" fill="#fff"/><path d="M16.69 35h-.95v-6.105c0-.508.016-.989.047-1.442a6.095 6.095 0 0 1-.275.258c-.102.09-.567.47-1.395 1.143l-.515-.668 2.267-1.752h.82V35Zm8.894 0h-5.63v-.838l2.255-2.267c.688-.696 1.14-1.192 1.36-1.489.218-.297.382-.586.492-.867.109-.281.164-.584.164-.908 0-.457-.14-.819-.416-1.084-.278-.27-.663-.404-1.155-.404-.355 0-.693.058-1.013.175-.317.117-.67.33-1.06.639l-.517-.662c.79-.656 1.649-.985 2.579-.985.804 0 1.435.208 1.892.622.457.41.686.963.686 1.658 0 .543-.153 1.08-.457 1.611-.305.531-.875 1.203-1.711 2.016l-1.875 1.834v.047h4.406V35Zm4.477-4.635h2.414v.809H30.06v2.496h-.814v-2.496h-2.402v-.809h2.402v-2.508h.815v2.508Z" fill="#A1A6B4"/></svg><svg fill="none" viewBox="0 0 30 30" id="18+" xmlns="http://www.w3.org/2000/svg"><path d="M8.69 20h-.95v-6.105c0-.508.016-.989.047-1.442a6.132 6.132 0 0 1-.275.258c-.102.09-.567.47-1.395 1.143l-.515-.668 2.267-1.752h.82V20Zm6.1-8.69c.78 0 1.4.182 1.857.545.457.364.685.866.685 1.506 0 .422-.13.807-.393 1.155-.261.347-.68.664-1.254.949.696.332 1.19.681 1.483 1.049.293.363.44.785.44 1.265 0 .711-.249 1.28-.745 1.705-.496.422-1.175.633-2.039.633-.914 0-1.617-.199-2.11-.598-.491-.402-.737-.97-.737-1.704 0-.981.597-1.745 1.793-2.292-.54-.304-.926-.632-1.16-.984a2.114 2.114 0 0 1-.352-1.19c0-.62.228-1.115.685-1.482.461-.37 1.077-.557 1.846-.557Zm-1.852 6.528c0 .469.162.834.486 1.096.328.261.787.392 1.377.392.582 0 1.035-.137 1.36-.41.323-.273.485-.648.485-1.125 0-.379-.152-.715-.457-1.008-.304-.297-.835-.584-1.593-.861-.582.25-1.004.527-1.266.832-.262.3-.393.662-.393 1.084Zm1.84-5.736c-.489 0-.872.117-1.15.351-.276.235-.415.547-.415.938 0 .359.115.668.346.925.23.258.656.516 1.277.774.559-.235.953-.486 1.184-.756.234-.27.351-.584.351-.943 0-.395-.142-.707-.428-.938-.28-.234-.67-.351-1.166-.351Zm7.283 3.263h2.414v.809H22.06v2.496h-.814v-2.496h-2.402v-.809h2.402v-2.508h.815v2.508Z" fill="#A1A6B4"/><rect x=".5" y=".5" width="29" height="29" rx="14.5" stroke="#A1A6B4"/></svg><svg fill="none" viewBox="0 0 16 12" id="GB" xmlns="http://www.w3.org/2000/svg"><path d="M-4 0h23.822v12H-4V0Z" fill="#0039A6"/><path d="M-4 0v1.34L17.158 12h2.664v-1.34L-1.336 0H-4Zm23.822 0v1.34L-1.336 12H-4v-1.34L17.158 0h2.664Z" fill="#fff"/><path d="M5.926 0v12h3.97V0h-3.97ZM-4 4v4h23.822V4H-4Z" fill="#fff"/><path d="M-4 4.8v2.4h23.822V4.8H-4ZM6.72 0v12h2.382V0H6.72ZM-4 12l7.94-4h1.777l-7.942 4H-4Zm0-12 7.94 4H2.165L-4 .896V0Zm14.107 4 7.94-4h1.775l-7.94 4h-1.775Zm9.715 8-7.94-4h1.775l6.165 3.105V12Z" fill="#D52B1E"/></svg><svg fill="none" viewBox="0 0 16 12" id="Russia" xmlns="http://www.w3.org/2000/svg"><path fill-rule="evenodd" clip-rule="evenodd" d="M0 0h16v12H0V0Z" fill="#fff"/><path fill-rule="evenodd" clip-rule="evenodd" d="M0 4h16v8H0V4Z" fill="#0039A6"/><path fill-rule="evenodd" clip-rule="evenodd" d="M0 8h16v4H0V8Z" fill="#D52B1E"/></svg><svg fill="none" viewBox="0 0 160 20" id="black-logo" xmlns="http://www.w3.org/2000/svg"><path d="M29.24.331v11.41c0 2.688-.735 4.742-2.205 6.16C25.564 19.3 23.478 20 20.779 20c-1.341 0-2.542-.193-3.603-.58-1.043-.387-1.9-.93-2.57-1.63-.688.7-1.554 1.243-2.597 1.63-1.043.387-2.225.58-3.547.58-2.7 0-4.785-.7-6.256-2.1C.736 16.484 0 14.43 0 11.74V.331h4.524v11.271c0 1.566.326 2.726.978 3.48.652.737 1.62 1.106 2.904 1.106 2.626 0 3.938-1.529 3.938-4.586V.332h4.525v11.27c0 3.057 1.322 4.586 3.965 4.586 2.57 0 3.855-1.529 3.855-4.586V.332h4.552ZM97.687.331v11.41c0 2.688-.736 4.742-2.207 6.16C94.01 19.3 91.924 20 89.225 20c-1.341 0-2.542-.193-3.603-.58-1.043-.387-1.9-.93-2.57-1.63-.689.7-1.554 1.243-2.597 1.63-1.043.387-2.225.58-3.547.58-2.7 0-4.785-.7-6.256-2.1-1.47-1.417-2.206-3.47-2.206-6.16V.331h4.524v11.271c0 1.566.326 2.726.978 3.48.651.737 1.62 1.106 2.904 1.106 2.626 0 3.938-1.529 3.938-4.586V.332h4.524v11.27c0 3.057 1.323 4.586 3.966 4.586 2.57 0 3.854-1.529 3.854-4.586V.332h4.553ZM110.957 0c1.806 0 3.38.35 4.72 1.05 1.341.7 2.384 1.73 3.128 3.094.745 1.362 1.117 3.01 1.117 4.944v10.58h-4.524v-4.64h-8.937v4.64h-4.469V9.089c0-1.933.373-3.582 1.118-4.944.744-1.363 1.787-2.394 3.128-3.094 1.34-.7 2.913-1.05 4.719-1.05Zm4.441 11.437V8.674c0-1.602-.4-2.808-1.201-3.619-.801-.828-1.89-1.243-3.267-1.243-1.397 0-2.495.415-3.296 1.243-.782.81-1.173 2.017-1.173 3.619v2.763h8.937ZM142.638.331l-8.462 19.338h-4.468L121.273.33h4.888l5.948 13.813L138.142.33h4.496ZM160 18.011c-.931.626-2.104 1.114-3.519 1.464-1.396.35-2.886.525-4.468.525-1.974 0-3.65-.24-5.028-.718-1.377-.497-2.42-1.179-3.128-2.044a4.692 4.692 0 0 1-1.061-3.011c0-1.032.289-1.943.866-2.735.577-.792 1.368-1.382 2.374-1.768a4.553 4.553 0 0 1-1.788-1.658c-.409-.7-.614-1.482-.614-2.348 0-1.05.326-2.007.978-2.873.651-.865 1.638-1.556 2.96-2.072C148.894.258 150.514 0 152.431 0c1.267 0 2.505.129 3.715.387 1.21.24 2.262.57 3.156.994l-1.257 3.426a12.823 12.823 0 0 0-5.446-1.188c-1.452 0-2.551.22-3.296.663-.726.423-1.089 1.003-1.089 1.74 0 .681.242 1.206.726 1.575.503.35 1.257.525 2.263.525h5.334v3.536h-5.614c-1.135 0-2.011.193-2.625.58-.614.386-.922.948-.922 1.685 0 .773.391 1.38 1.173 1.823.801.423 2.021.635 3.659.635 1.154 0 2.309-.147 3.463-.442 1.154-.313 2.132-.746 2.933-1.298L160 18.01Z" fill="#292E39"/><path d="M56.823 11.202H33.548V7.83h23.275l-4.121-4.155 2.365-2.385 8.159 8.226-8.159 8.226-2.365-2.385 4.121-4.155Z" fill="#6D31EE"/></svg><svg viewBox="0 0 160 160" fill="none" id="new" xmlns="http://www.w3.org/2000/svg"><path d="M151.975 89.613a15 15 0 0 0 0-19.226l-5.75-6.888a15.001 15.001 0 0 1-3.428-10.927l.795-9.036a15 15 0 0 0-11.47-15.907l-7.274-1.73a15 15 0 0 1-9.594-7.227l-3.799-6.739c-3.81-6.758-12.145-9.496-19.22-6.313l-6.081 2.735a15 15 0 0 1-12.308 0L67.75 5.612c-7.068-3.18-15.395-.45-19.21 6.296l-3.78 6.681a15 15 0 0 1-9.624 7.218l-7.217 1.697a15 15 0 0 0-11.51 15.912l.798 9.097a15 15 0 0 1-3.411 10.903L7.993 70.39a15 15 0 0 0 .017 19.206l5.767 6.907a14.999 14.999 0 0 1 3.427 10.923l-.8 9.117a15 15 0 0 0 11.47 15.903l7.29 1.735a15 15 0 0 1 9.584 7.208l3.773 6.672c3.823 6.76 12.172 9.484 19.245 6.28l6.066-2.747a15 15 0 0 1 12.343-.016l6.076 2.733c7.069 3.18 15.395.451 19.211-6.295l3.79-6.703a15 15 0 0 1 9.585-7.208l7.285-1.734a15 15 0 0 0 11.47-15.907l-.795-9.036a15 15 0 0 1 3.428-10.927l5.75-6.888Z" fill="#F0D288"/><path d="m55.956 118.705-14.814-18.294 3.198-2.59 1.714 2.116c-.078-2.76.994-5.039 3.215-6.837 2.37-1.919 4.81-2.508 7.32-1.768 1.544.453 3.22 1.797 5.029 4.03l9.174 11.329-3.198 2.59L58.49 98.04c-1.213-1.499-2.4-2.388-3.557-2.667-1.395-.33-2.758.044-4.091 1.123-1.362 1.104-2.062 2.449-2.1 4.037-.056 1.748.833 3.753 2.665 6.016l7.746 9.566-3.198 2.59ZM85.54 84.603l3.842-.703c.33 1.679.373 3.275.127 4.788-.474 2.865-1.91 5.27-4.31 7.212-2.487 2.014-5.276 2.959-8.367 2.835-3.086-.178-5.914-1.854-8.484-5.028-2.26-2.791-3.33-5.746-3.206-8.863.13-3.17 1.556-5.858 4.28-8.064 3.08-2.494 6.31-3.26 9.687-2.297 2.672.756 5.105 2.58 7.301 5.474L72.063 91.575c1.53 1.827 3.32 2.858 5.373 3.093 2.054.235 3.895-.307 5.524-1.626 1.45-1.174 2.352-2.634 2.704-4.38a9.27 9.27 0 0 0-.125-4.059ZM70.142 88.75l10.838-8.776c-1.432-1.225-2.997-1.855-4.694-1.892-1.691-.09-3.218.416-4.58 1.519-1.332 1.08-2.148 2.494-2.447 4.244-.293 1.697.002 3.332.883 4.905ZM80.726 68.356l3.553-2.877 15.53 8.007-5.434-18.518 16.939 9.202-4.559-16.891 3.553-2.878 6.7 26.982-16.752-9.061 5.381 18.269-24.91-12.235Z" fill="#292E39"/></svg><svg fill="none" viewBox="0 0 13 9" id="select-arrow" xmlns="http://www.w3.org/2000/svg"><path fill-rule="evenodd" clip-rule="evenodd" d="M6.657 6.607 1.354 1.303l-.708.707 6.01 6.01 6.011-6.01-.707-.707-5.303 5.304Z" fill="#A1A6B4"/></svg><svg fill="none" viewBox="0 0 160 20" id="white-logo" xmlns="http://www.w3.org/2000/svg"><path d="M29.24.331v11.41c0 2.688-.735 4.742-2.205 6.16C25.564 19.3 23.478 20 20.779 20c-1.341 0-2.542-.193-3.603-.58-1.043-.387-1.9-.93-2.57-1.63-.688.7-1.554 1.243-2.597 1.63-1.043.387-2.225.58-3.547.58-2.7 0-4.785-.7-6.256-2.1C.736 16.484 0 14.43 0 11.74V.331h4.524v11.271c0 1.566.326 2.726.978 3.48.652.737 1.62 1.106 2.904 1.106 2.626 0 3.938-1.529 3.938-4.586V.332h4.525v11.27c0 3.057 1.322 4.586 3.965 4.586 2.57 0 3.855-1.529 3.855-4.586V.332h4.552ZM97.687.331v11.41c0 2.688-.736 4.742-2.207 6.16C94.01 19.3 91.924 20 89.225 20c-1.341 0-2.542-.193-3.603-.58-1.043-.387-1.9-.93-2.57-1.63-.689.7-1.554 1.243-2.597 1.63-1.043.387-2.225.58-3.547.58-2.7 0-4.785-.7-6.256-2.1-1.47-1.417-2.206-3.47-2.206-6.16V.331h4.524v11.271c0 1.566.326 2.726.978 3.48.651.737 1.62 1.106 2.904 1.106 2.626 0 3.938-1.529 3.938-4.586V.332h4.524v11.27c0 3.057 1.323 4.586 3.966 4.586 2.57 0 3.854-1.529 3.854-4.586V.332h4.553ZM110.957 0c1.806 0 3.38.35 4.72 1.05 1.341.7 2.384 1.73 3.128 3.094.745 1.362 1.117 3.01 1.117 4.944v10.58h-4.524v-4.64h-8.937v4.64h-4.469V9.089c0-1.933.373-3.582 1.118-4.944.744-1.363 1.787-2.394 3.128-3.094 1.34-.7 2.913-1.05 4.719-1.05Zm4.441 11.437V8.674c0-1.602-.4-2.808-1.201-3.619-.801-.828-1.89-1.243-3.267-1.243-1.397 0-2.495.415-3.296 1.243-.782.81-1.173 2.017-1.173 3.619v2.763h8.937ZM142.638.331l-8.462 19.338h-4.468L121.273.33h4.888l5.948 13.813L138.142.33h4.496ZM160 18.011c-.931.626-2.104 1.114-3.519 1.464-1.396.35-2.886.525-4.468.525-1.974 0-3.65-.24-5.028-.718-1.377-.497-2.42-1.179-3.128-2.044a4.692 4.692 0 0 1-1.061-3.011c0-1.032.289-1.943.866-2.735.577-.792 1.368-1.382 2.374-1.768a4.553 4.553 0 0 1-1.788-1.658c-.409-.7-.614-1.482-.614-2.348 0-1.05.326-2.007.978-2.873.651-.865 1.638-1.556 2.96-2.072C148.894.258 150.514 0 152.431 0c1.267 0 2.505.129 3.715.387 1.21.24 2.262.57 3.156.994l-1.257 3.426a12.823 12.823 0 0 0-5.446-1.188c-1.452 0-2.551.22-3.296.663-.726.423-1.089 1.003-1.089 1.74 0 .681.242 1.206.726 1.575.503.35 1.257.525 2.263.525h5.334v3.536h-5.614c-1.135 0-2.011.193-2.625.58-.614.386-.922.948-.922 1.685 0 .773.391 1.38 1.173 1.823.801.423 2.021.635 3.659.635 1.154 0 2.309-.147 3.463-.442 1.154-.313 2.132-.746 2.933-1.298L160 18.01Z" fill="#fff"/><path d="M56.823 11.203H33.548V7.83h23.275l-4.121-4.155 2.365-2.384 8.159 8.225-8.159 8.226-2.365-2.384 4.121-4.155Z" fill="#AA9DFA"/></svg></svg>