<svg width="20" height="19" viewBox="0 0 20 19" fill="none" xmlns="http://www.w3.org/2000/svg">
<path d="M9.30029 15.963L9.27849 15.9416L9.25542 15.9216C6.63834 13.6505 4.55513 11.8167 3.11652 10.0996C1.68872 8.3955 1 6.92579 1 5.39545C1 2.92467 2.9341 1 5.5 1C6.9082 1 8.3321 1.65744 9.24277 2.71323L10 3.59113L10.7572 2.71323C11.6679 1.65744 13.0918 1 14.5 1C17.0659 1 19 2.92467 19 5.39545C19 6.92579 18.3113 8.3955 16.8835 10.0996C15.4449 11.8167 13.3617 13.6505 10.7446 15.9216L10.7215 15.9416L10.6997 15.963L10 16.6494L9.30029 15.963Z" stroke="CurrentColor" stroke-width="2"/>
</svg>