<svg width="36" height="36" viewBox="0 0 36 36" fill="none" xmlns="http://www.w3.org/2000/svg">
<path d="M7.50004 18.8438H28.5C28.966 18.8438 29.3438 18.466 29.3438 18C29.3438 17.534 28.966 17.1562 28.5 17.1562H7.50004C7.03408 17.1562 6.65629 17.534 6.65629 18C6.65629 18.466 7.03408 18.8438 7.50004 18.8438Z" fill="CurrentColor" fill-opacity="0.8"/>
<path d="M14.4994 24.4891C14.7458 24.4891 14.99 24.3818 15.1567 24.1751C15.4493 23.8124 15.3924 23.2812 15.0297 22.9886L8.84476 17.9999L15.0297 13.0113C15.3924 12.7187 15.4492 12.1875 15.1567 11.8248C14.8641 11.4621 14.3329 11.4053 13.9703 11.6978L6.97114 17.3431C6.77258 17.5033 6.65712 17.7448 6.65712 17.9999C6.65712 18.255 6.77258 18.4964 6.97114 18.6566L13.9703 24.302C14.1262 24.4279 14.3135 24.4891 14.4994 24.4891Z" fill="CurrentColor" fill-opacity="0.8"/>
</svg>
